<?xml version="1.0" standalone="no"?>
<!DOCTYPE svg PUBLIC "-//W3C//DTD SVG 1.1//EN" "http://www.w3.org/Graphics/SVG/1.1/DTD/svg11.dtd">

<svg width="100%" height="100%" 
  xmlns="http://www.w3.org/2000/svg"
  xmlns:xlink="http://www.w3.org/1999/xlink">


<rect x="0" y="0" width="800" height="800" fill="#ccc"/>
<line x1="587.93" y1="468.4" x2="600.0" y2="400.0" style="stroke:black; stroke-width:2"/>
<line x1="500.0" y1="573.2" x2="587.93" y2="468.4" style="stroke:black; stroke-width:2"/>
<line x1="434.72" y1="596.96" x2="600.0" y2="400.0" style="stroke:black; stroke-width:2"/>
<line x1="365.27" y1="596.96" x2="600.0" y2="400.0" style="stroke:black; stroke-width:2"/>
<line x1="365.27" y1="596.96" x2="553.2" y2="528.55" style="stroke:black; stroke-width:2"/>
<line x1="246.79" y1="528.55" x2="587.93" y2="468.4" style="stroke:black; stroke-width:2"/>
<line x1="246.79" y1="528.55" x2="500.0" y2="573.2" style="stroke:black; stroke-width:2"/>
<line x1="200.0" y1="400.0" x2="600.0" y2="400.0" style="stroke:black; stroke-width:2"/>
<line x1="200.0" y1="400.0" x2="434.72" y2="596.96" style="stroke:black; stroke-width:2"/>
<line x1="212.06" y1="331.59" x2="500.0" y2="573.2" style="stroke:black; stroke-width:2"/>
<line x1="212.06" y1="331.59" x2="434.72" y2="596.96" style="stroke:black; stroke-width:2"/>
<line x1="212.06" y1="331.59" x2="300.0" y2="573.2" style="stroke:black; stroke-width:2"/>
<line x1="212.06" y1="331.59" x2="246.79" y2="528.55" style="stroke:black; stroke-width:2"/>
<line x1="212.06" y1="331.59" x2="200.0" y2="400.0" style="stroke:black; stroke-width:2"/>
<line x1="299.99" y1="226.79" x2="246.79" y2="528.55" style="stroke:black; stroke-width:2"/>
<line x1="365.27" y1="203.03" x2="587.93" y2="468.4" style="stroke:black; stroke-width:2"/>
<line x1="365.27" y1="203.03" x2="434.72" y2="596.96" style="stroke:black; stroke-width:2"/>
<line x1="365.27" y1="203.03" x2="212.06" y2="331.59" style="stroke:black; stroke-width:2"/>
<line x1="365.27" y1="203.03" x2="246.79" y2="271.44" style="stroke:black; stroke-width:2"/>
<line x1="434.72" y1="203.03" x2="587.93" y2="468.4" style="stroke:black; stroke-width:2"/>
<line x1="434.72" y1="203.03" x2="553.2" y2="528.55" style="stroke:black; stroke-width:2"/>
<line x1="434.72" y1="203.03" x2="500.0" y2="573.2" style="stroke:black; stroke-width:2"/>
<line x1="434.72" y1="203.03" x2="365.27" y2="596.96" style="stroke:black; stroke-width:2"/>
<line x1="434.72" y1="203.03" x2="365.27" y2="203.03" style="stroke:black; stroke-width:2"/>
<line x1="499.99" y1="226.79" x2="434.72" y2="596.96" style="stroke:black; stroke-width:2"/>
<line x1="499.99" y1="226.79" x2="212.06" y2="331.59" style="stroke:black; stroke-width:2"/>
<line x1="553.2" y1="271.44" x2="200.0" y2="400.0" style="stroke:black; stroke-width:2"/>
<line x1="553.2" y1="271.44" x2="246.79" y2="271.44" style="stroke:black; stroke-width:2"/>
<line x1="587.93" y1="331.59" x2="246.79" y2="528.55" style="stroke:black; stroke-width:2"/>
<circle cx="600.0" cy="400.0" r="5" fill="blue"/>
<circle cx="587.93" cy="468.4" r="5" fill="blue"/>
<circle cx="553.2" cy="528.55" r="5" fill="blue"/>
<circle cx="500.0" cy="573.2" r="5" fill="blue"/>
<circle cx="434.72" cy="596.96" r="5" fill="blue"/>
<circle cx="365.27" cy="596.96" r="5" fill="blue"/>
<circle cx="300.0" cy="573.2" r="5" fill="blue"/>
<circle cx="246.79" cy="528.55" r="5" fill="blue"/>
<circle cx="212.06" cy="468.4" r="5" fill="blue"/>
<circle cx="200.0" cy="400.0" r="5" fill="blue"/>
<circle cx="212.06" cy="331.59" r="5" fill="blue"/>
<circle cx="246.79" cy="271.44" r="5" fill="blue"/>
<circle cx="299.99" cy="226.79" r="5" fill="blue"/>
<circle cx="365.27" cy="203.03" r="5" fill="blue"/>
<circle cx="434.72" cy="203.03" r="5" fill="blue"/>
<circle cx="499.99" cy="226.79" r="5" fill="blue"/>
<circle cx="553.2" cy="271.44" r="5" fill="blue"/>
<circle cx="587.93" cy="331.59" r="5" fill="blue"/>

</svg>