<?xml version="1.0" standalone="no"?>
<!DOCTYPE svg PUBLIC "-//W3C//DTD SVG 1.1//EN" "http://www.w3.org/Graphics/SVG/1.1/DTD/svg11.dtd">

<svg width="100%" height="100%" 
  xmlns="http://www.w3.org/2000/svg"
  xmlns:xlink="http://www.w3.org/1999/xlink">


<rect x="0" y="0" width="800" height="800" fill="#ccc"/>
<line x1="430.9" y1="495.1" x2="480.9" y2="458.77" style="stroke:green; stroke-width:2"/>
<line x1="430.9" y1="304.89" x2="319.09" y2="341.22" style="stroke:green; stroke-width:2"/>
<line x1="480.9" y1="341.22" x2="430.9" y2="304.89" style="stroke:green; stroke-width:2"/>
<circle cx="500.0" cy="400.0" r="5" fill="blue"/>
<circle cx="480.9" cy="458.77" r="5" fill="blue"/>
<circle cx="430.9" cy="495.1" r="5" fill="blue"/>
<circle cx="369.09" cy="495.1" r="5" fill="blue"/>
<circle cx="319.09" cy="458.77" r="5" fill="blue"/>
<circle cx="300.0" cy="400.0" r="5" fill="blue"/>
<circle cx="319.09" cy="341.22" r="5" fill="blue"/>
<circle cx="369.09" cy="304.89" r="5" fill="blue"/>
<circle cx="430.9" cy="304.89" r="5" fill="blue"/>
<circle cx="480.9" cy="341.22" r="5" fill="blue"/>
<line x1="319.09" y1="341.22" x2="430.9" y2="304.89" style="stroke:red; stroke-width:2"/>
<line x1="319.09" y1="341.22" x2="480.9" y2="341.22" style="stroke:red; stroke-width:2"/>
<line x1="319.09" y1="341.22" x2="430.9" y2="304.89" style="stroke:red; stroke-width:2"/>
<line x1="430.9" y1="304.89" x2="319.09" y2="341.22" style="stroke:red; stroke-width:2"/>
<line x1="430.9" y1="304.89" x2="480.9" y2="341.22" style="stroke:red; stroke-width:2"/>
<line x1="480.9" y1="341.22" x2="430.9" y2="304.89" style="stroke:red; stroke-width:2"/>
<line x1="480.9" y1="341.22" x2="319.09" y2="341.22" style="stroke:red; stroke-width:2"/>
<line x1="480.9" y1="341.22" x2="430.9" y2="304.89" style="stroke:red; stroke-width:2"/>
<circle cx="319.09" cy="341.22" r="5" fill="red"/>
<circle cx="430.9" cy="304.89" r="5" fill="red"/>
<circle cx="480.9" cy="341.22" r="5" fill="red"/>

</svg>