<?xml version="1.0" standalone="no"?>
<!DOCTYPE svg PUBLIC "-//W3C//DTD SVG 1.1//EN" "http://www.w3.org/Graphics/SVG/1.1/DTD/svg11.dtd">

<svg width="100%" height="100%" 
  xmlns="http://www.w3.org/2000/svg"
  xmlns:xlink="http://www.w3.org/1999/xlink">


<rect x="0" y="0" width="800" height="800" fill="#ccc"/>
<line x1="587.93" y1="468.4" x2="600.0" y2="400.0" style="stroke:black; stroke-width:2"/>
<line x1="500.0" y1="573.2" x2="587.93" y2="468.4" style="stroke:black; stroke-width:2"/>
<line x1="434.72" y1="596.96" x2="600.0" y2="400.0" style="stroke:black; stroke-width:2"/>
<line x1="365.27" y1="596.96" x2="600.0" y2="400.0" style="stroke:black; stroke-width:2"/>
<line x1="365.27" y1="596.96" x2="553.2" y2="528.55" style="stroke:black; stroke-width:2"/>
<line x1="246.79" y1="528.55" x2="587.93" y2="468.4" style="stroke:black; stroke-width:2"/>
<line x1="246.79" y1="528.55" x2="500.0" y2="573.2" style="stroke:black; stroke-width:2"/>
<line x1="200.0" y1="400.0" x2="600.0" y2="400.0" style="stroke:black; stroke-width:2"/>
<line x1="200.0" y1="400.0" x2="434.72" y2="596.96" style="stroke:black; stroke-width:2"/>
<line x1="212.06" y1="331.59" x2="500.0" y2="573.2" style="stroke:black; stroke-width:2"/>
<line x1="212.06" y1="331.59" x2="434.72" y2="596.96" style="stroke:black; stroke-width:2"/>
<line x1="212.06" y1="331.59" x2="300.0" y2="573.2" style="stroke:black; stroke-width:2"/>
<line x1="212.06" y1="331.59" x2="246.79" y2="528.55" style="stroke:black; stroke-width:2"/>
<line x1="212.06" y1="331.59" x2="200.0" y2="400.0" style="stroke:black; stroke-width:2"/>
<line x1="299.99" y1="226.79" x2="246.79" y2="528.55" style="stroke:black; stroke-width:2"/>
<line x1="365.27" y1="203.03" x2="587.93" y2="468.4" style="stroke:black; stroke-width:2"/>
<line x1="365.27" y1="203.03" x2="434.72" y2="596.96" style="stroke:black; stroke-width:2"/>
<line x1="365.27" y1="203.03" x2="212.06" y2="331.59" style="stroke:black; stroke-width:2"/>
<line x1="365.27" y1="203.03" x2="246.79" y2="271.44" style="stroke:black; stroke-width:2"/>
<line x1="434.72" y1="203.03" x2="587.93" y2="468.4" style="stroke:black; stroke-width:2"/>
<line x1="434.72" y1="203.03" x2="553.2" y2="528.55" style="stroke:black; stroke-width:2"/>
<line x1="434.72" y1="203.03" x2="500.0" y2="573.2" style="stroke:black; stroke-width:2"/>
<line x1="434.72" y1="203.03" x2="365.27" y2="596.96" style="stroke:black; stroke-width:2"/>
<line x1="434.72" y1="203.03" x2="365.27" y2="203.03" style="stroke:black; stroke-width:2"/>
<line x1="499.99" y1="226.79" x2="434.72" y2="596.96" style="stroke:black; stroke-width:2"/>
<line x1="499.99" y1="226.79" x2="212.06" y2="331.59" style="stroke:black; stroke-width:2"/>
<line x1="553.2" y1="271.44" x2="200.0" y2="400.0" style="stroke:black; stroke-width:2"/>
<line x1="553.2" y1="271.44" x2="246.79" y2="271.44" style="stroke:black; stroke-width:2"/>
<line x1="587.93" y1="331.59" x2="246.79" y2="528.55" style="stroke:black; stroke-width:2"/>
<circle cx="600.0" cy="400.0" r="5" fill="blue"/>
<circle cx="587.93" cy="468.4" r="5" fill="blue"/>
<circle cx="553.2" cy="528.55" r="5" fill="blue"/>
<circle cx="500.0" cy="573.2" r="5" fill="blue"/>
<circle cx="434.72" cy="596.96" r="5" fill="blue"/>
<circle cx="365.27" cy="596.96" r="5" fill="blue"/>
<circle cx="300.0" cy="573.2" r="5" fill="blue"/>
<circle cx="246.79" cy="528.55" r="5" fill="blue"/>
<circle cx="212.06" cy="468.4" r="5" fill="blue"/>
<circle cx="200.0" cy="400.0" r="5" fill="blue"/>
<circle cx="212.06" cy="331.59" r="5" fill="blue"/>
<circle cx="246.79" cy="271.44" r="5" fill="blue"/>
<circle cx="299.99" cy="226.79" r="5" fill="blue"/>
<circle cx="365.27" cy="203.03" r="5" fill="blue"/>
<circle cx="434.72" cy="203.03" r="5" fill="blue"/>
<circle cx="499.99" cy="226.79" r="5" fill="blue"/>
<circle cx="553.2" cy="271.44" r="5" fill="blue"/>
<circle cx="587.93" cy="331.59" r="5" fill="blue"/>
<line x1="493.96" y1="434.2" x2="500.0" y2="400.0" style="stroke:green; stroke-width:2"/>
<line x1="450.0" y1="486.6" x2="493.96" y2="434.2" style="stroke:green; stroke-width:2"/>
<line x1="417.36" y1="498.48" x2="500.0" y2="400.0" style="stroke:green; stroke-width:2"/>
<line x1="382.63" y1="498.48" x2="500.0" y2="400.0" style="stroke:green; stroke-width:2"/>
<line x1="382.63" y1="498.48" x2="476.6" y2="464.27" style="stroke:green; stroke-width:2"/>
<line x1="323.39" y1="464.27" x2="493.96" y2="434.2" style="stroke:green; stroke-width:2"/>
<line x1="323.39" y1="464.27" x2="450.0" y2="486.6" style="stroke:green; stroke-width:2"/>
<line x1="300.0" y1="400.0" x2="500.0" y2="400.0" style="stroke:green; stroke-width:2"/>
<line x1="300.0" y1="400.0" x2="417.36" y2="498.48" style="stroke:green; stroke-width:2"/>
<line x1="306.03" y1="365.79" x2="450.0" y2="486.6" style="stroke:green; stroke-width:2"/>
<line x1="306.03" y1="365.79" x2="417.36" y2="498.48" style="stroke:green; stroke-width:2"/>
<line x1="306.03" y1="365.79" x2="350.0" y2="486.6" style="stroke:green; stroke-width:2"/>
<line x1="306.03" y1="365.79" x2="323.39" y2="464.27" style="stroke:green; stroke-width:2"/>
<line x1="306.03" y1="365.79" x2="300.0" y2="400.0" style="stroke:green; stroke-width:2"/>
<line x1="349.99" y1="313.39" x2="323.39" y2="464.27" style="stroke:green; stroke-width:2"/>
<line x1="382.63" y1="301.51" x2="493.96" y2="434.2" style="stroke:green; stroke-width:2"/>
<line x1="382.63" y1="301.51" x2="417.36" y2="498.48" style="stroke:green; stroke-width:2"/>
<line x1="382.63" y1="301.51" x2="306.03" y2="365.79" style="stroke:green; stroke-width:2"/>
<line x1="382.63" y1="301.51" x2="323.39" y2="335.72" style="stroke:green; stroke-width:2"/>
<line x1="417.36" y1="301.51" x2="493.96" y2="434.2" style="stroke:green; stroke-width:2"/>
<line x1="417.36" y1="301.51" x2="476.6" y2="464.27" style="stroke:green; stroke-width:2"/>
<line x1="417.36" y1="301.51" x2="450.0" y2="486.6" style="stroke:green; stroke-width:2"/>
<line x1="417.36" y1="301.51" x2="382.63" y2="498.48" style="stroke:green; stroke-width:2"/>
<line x1="417.36" y1="301.51" x2="382.63" y2="301.51" style="stroke:green; stroke-width:2"/>
<line x1="449.99" y1="313.39" x2="417.36" y2="498.48" style="stroke:green; stroke-width:2"/>
<line x1="449.99" y1="313.39" x2="306.03" y2="365.79" style="stroke:green; stroke-width:2"/>
<line x1="476.6" y1="335.72" x2="300.0" y2="400.0" style="stroke:green; stroke-width:2"/>
<line x1="476.6" y1="335.72" x2="323.39" y2="335.72" style="stroke:green; stroke-width:2"/>
<line x1="493.96" y1="365.79" x2="323.39" y2="464.27" style="stroke:green; stroke-width:2"/>
<circle cx="500.0" cy="400.0" r="5" fill="blue"/>
<circle cx="493.96" cy="434.2" r="5" fill="blue"/>
<circle cx="476.6" cy="464.27" r="5" fill="blue"/>
<circle cx="450.0" cy="486.6" r="5" fill="blue"/>
<circle cx="417.36" cy="498.48" r="5" fill="blue"/>
<circle cx="382.63" cy="498.48" r="5" fill="blue"/>
<circle cx="350.0" cy="486.6" r="5" fill="blue"/>
<circle cx="323.39" cy="464.27" r="5" fill="blue"/>
<circle cx="306.03" cy="434.2" r="5" fill="blue"/>
<circle cx="300.0" cy="400.0" r="5" fill="blue"/>
<circle cx="306.03" cy="365.79" r="5" fill="blue"/>
<circle cx="323.39" cy="335.72" r="5" fill="blue"/>
<circle cx="349.99" cy="313.39" r="5" fill="blue"/>
<circle cx="382.63" cy="301.51" r="5" fill="blue"/>
<circle cx="417.36" cy="301.51" r="5" fill="blue"/>
<circle cx="449.99" cy="313.39" r="5" fill="blue"/>
<circle cx="476.6" cy="335.72" r="5" fill="blue"/>
<circle cx="493.96" cy="365.79" r="5" fill="blue"/>
<line x1="417.36" y1="301.51" x2="493.96" y2="434.2" style="stroke:red; stroke-width:2"/>
<line x1="417.36" y1="301.51" x2="417.36" y2="498.48" style="stroke:red; stroke-width:2"/>
<line x1="417.36" y1="301.51" x2="382.63" y2="498.48" style="stroke:red; stroke-width:2"/>
<line x1="417.36" y1="301.51" x2="300.0" y2="400.0" style="stroke:red; stroke-width:2"/>
<line x1="417.36" y1="301.51" x2="500.0" y2="400.0" style="stroke:red; stroke-width:2"/>
<line x1="417.36" y1="301.51" x2="450.0" y2="486.6" style="stroke:red; stroke-width:2"/>
<line x1="417.36" y1="301.51" x2="323.39" y2="464.27" style="stroke:red; stroke-width:2"/>
<line x1="417.36" y1="301.51" x2="382.63" y2="301.51" style="stroke:red; stroke-width:2"/>
<line x1="417.36" y1="301.51" x2="306.03" y2="365.79" style="stroke:red; stroke-width:2"/>
<line x1="417.36" y1="301.51" x2="449.99" y2="313.39" style="stroke:red; stroke-width:2"/>
<line x1="417.36" y1="301.51" x2="476.6" y2="464.27" style="stroke:red; stroke-width:2"/>
<line x1="417.36" y1="301.51" x2="349.99" y2="313.39" style="stroke:red; stroke-width:2"/>
<line x1="417.36" y1="301.51" x2="493.96" y2="365.79" style="stroke:red; stroke-width:2"/>
<line x1="417.36" y1="301.51" x2="476.6" y2="335.72" style="stroke:red; stroke-width:2"/>
<line x1="417.36" y1="301.51" x2="350.0" y2="486.6" style="stroke:red; stroke-width:2"/>
<line x1="417.36" y1="301.51" x2="323.39" y2="335.72" style="stroke:red; stroke-width:2"/>
<circle cx="417.36" cy="301.51" r="5" fill="red"/>
<circle cx="493.96" cy="434.2" r="5" fill="red"/>
<circle cx="500.0" cy="400.0" r="5" fill="red"/>
<circle cx="417.36" cy="498.48" r="5" fill="red"/>
<circle cx="300.0" cy="400.0" r="5" fill="red"/>
<circle cx="306.03" cy="365.79" r="5" fill="red"/>
<circle cx="450.0" cy="486.6" r="5" fill="red"/>
<circle cx="323.39" cy="464.27" r="5" fill="red"/>
<circle cx="349.99" cy="313.39" r="5" fill="red"/>
<circle cx="493.96" cy="365.79" r="5" fill="red"/>
<circle cx="350.0" cy="486.6" r="5" fill="red"/>
<circle cx="382.63" cy="301.51" r="5" fill="red"/>
<circle cx="323.39" cy="335.72" r="5" fill="red"/>
<circle cx="476.6" cy="335.72" r="5" fill="red"/>
<circle cx="449.99" cy="313.39" r="5" fill="red"/>
<circle cx="382.63" cy="498.48" r="5" fill="red"/>
<circle cx="476.6" cy="464.27" r="5" fill="red"/>

</svg>