<?xml version="1.0" standalone="no"?>
<!DOCTYPE svg PUBLIC "-//W3C//DTD SVG 1.1//EN" "http://www.w3.org/Graphics/SVG/1.1/DTD/svg11.dtd">

<svg width="100%" height="100%" 
  xmlns="http://www.w3.org/2000/svg"
  xmlns:xlink="http://www.w3.org/1999/xlink">


<rect x="0" y="0" width="800" height="800" fill="#ccc"/>
<line x1="382.63" y1="498.48" x2="500.0" y2="400.0" style="stroke:black; stroke-width:2"/>
<line x1="306.03" y1="434.2" x2="323.39" y2="464.27" style="stroke:black; stroke-width:2"/>
<line x1="300.0" y1="400.0" x2="493.96" y2="434.2" style="stroke:black; stroke-width:2"/>
<line x1="300.0" y1="400.0" x2="382.63" y2="498.48" style="stroke:black; stroke-width:2"/>
<line x1="300.0" y1="400.0" x2="350.0" y2="486.6" style="stroke:black; stroke-width:2"/>
<line x1="382.63" y1="301.51" x2="476.6" y2="464.27" style="stroke:black; stroke-width:2"/>
<line x1="382.63" y1="301.51" x2="417.36" y2="498.48" style="stroke:black; stroke-width:2"/>
<line x1="382.63" y1="301.51" x2="323.39" y2="464.27" style="stroke:black; stroke-width:2"/>
<line x1="382.63" y1="301.51" x2="306.03" y2="434.2" style="stroke:black; stroke-width:2"/>
<line x1="417.36" y1="301.51" x2="417.36" y2="498.48" style="stroke:black; stroke-width:2"/>
<line x1="449.99" y1="313.39" x2="493.96" y2="434.2" style="stroke:black; stroke-width:2"/>
<line x1="449.99" y1="313.39" x2="382.63" y2="301.51" style="stroke:black; stroke-width:2"/>
<line x1="493.96" y1="365.79" x2="500.0" y2="400.0" style="stroke:black; stroke-width:2"/>
<circle cx="500.0" cy="400.0" r="5" fill="blue"/>
<circle cx="493.96" cy="434.2" r="5" fill="blue"/>
<circle cx="476.6" cy="464.27" r="5" fill="blue"/>
<circle cx="450.0" cy="486.6" r="5" fill="blue"/>
<circle cx="417.36" cy="498.48" r="5" fill="blue"/>
<circle cx="382.63" cy="498.48" r="5" fill="blue"/>
<circle cx="350.0" cy="486.6" r="5" fill="blue"/>
<circle cx="323.39" cy="464.27" r="5" fill="blue"/>
<circle cx="306.03" cy="434.2" r="5" fill="blue"/>
<circle cx="300.0" cy="400.0" r="5" fill="blue"/>
<circle cx="306.03" cy="365.79" r="5" fill="blue"/>
<circle cx="323.39" cy="335.72" r="5" fill="blue"/>
<circle cx="349.99" cy="313.39" r="5" fill="blue"/>
<circle cx="382.63" cy="301.51" r="5" fill="blue"/>
<circle cx="417.36" cy="301.51" r="5" fill="blue"/>
<circle cx="449.99" cy="313.39" r="5" fill="blue"/>
<circle cx="476.6" cy="335.72" r="5" fill="blue"/>
<circle cx="493.96" cy="365.79" r="5" fill="blue"/>

</svg>